<svg xmlns="http://www.w3.org/2000/svg" viewBox="0 0 301.07 240.57"><defs><style>.cls-1{fill:#e2cb00;stroke:#e2cb00;}.cls-1,.cls-2,.cls-3{stroke-miterlimit:10;stroke-width:0.5px;}.cls-2{fill:#027;stroke:#027;}.cls-3{fill:#03852d;stroke:#03852d;}</style></defs><title>Recurso 7</title><g id="Capa_2" data-name="Capa 2"><g id="Capa_2-2" data-name="Capa 2"><path class="cls-1" d="M61,120.28a89.11,89.11,0,0,0,10.9,42.84L.49,120.28,71.9,77.44A89.11,89.11,0,0,0,61,120.28Z"/><path class="cls-1" d="M229.2,163.11a89.67,89.67,0,0,0,0-85.66l71.39,42.83Z"/><path class="cls-2" d="M240.09,120.28a89.5,89.5,0,0,1-88.73,89.54h-1.64a89.54,89.54,0,0,1,0-179.07h1.64a89.49,89.49,0,0,1,88.73,89.53Z"/><polygon class="cls-3" points="300.59 0.25 300.59 90.27 150.54 0.25 300.59 0.25"/><polygon class="cls-3" points="0.49 150.29 150.54 240.32 0.49 240.32 0.49 150.29"/></g></g></svg>