<svg xmlns="http://www.w3.org/2000/svg" viewBox="0 0 56.97 45.3"><defs><style>.cls-1{fill:#e2cb00;stroke:#e2cb00;}.cls-1,.cls-2,.cls-3{stroke-miterlimit:10;stroke-width:0.5px;}.cls-2{fill:#027;stroke:#027;}.cls-3{fill:#03852d;stroke:#03852d;}</style></defs><title>Recurso 7</title><g id="Capa_2" data-name="Capa 2"><g id="Capa_3" data-name="Capa 3"><path class="cls-1" d="M11.78,22.65a16.58,16.58,0,0,0,2,8l-13.32-8,13.32-8A16.62,16.62,0,0,0,11.78,22.65Z"/><path class="cls-1" d="M43.16,30.64a16.69,16.69,0,0,0,0-16l13.33,8Z"/><path class="cls-2" d="M45.2,22.65a16.58,16.58,0,0,1-2,8L28.64,39.36l-.15.09-.16-.09L13.81,30.64a16.76,16.76,0,0,1,0-16L28.33,5.94l.16-.09.15.09,14.52,8.71A16.62,16.62,0,0,1,45.2,22.65Z"/><polygon class="cls-3" points="28.49 0.25 56.49 17.05 56.49 0.25 28.49 0.25"/><polygon class="cls-3" points="0.49 28.25 28.49 45.05 0.49 45.05 0.49 28.25"/></g></g></svg>